<svg id="visual" viewBox="0 0 900 600" width="900" height="600" xmlns="http://www.w3.org/2000/svg" xmlns:xlink="http://www.w3.org/1999/xlink" version="1.1"><rect x="0" y="0" width="900" height="600" fill="#CCCCCC"></rect><defs><linearGradient id="grad1_0" x1="33.3%" y1="0%" x2="100%" y2="100%"><stop offset="20%" stop-color="#af956d" stop-opacity="1"></stop><stop offset="80%" stop-color="#af956d" stop-opacity="1"></stop></linearGradient></defs><defs><linearGradient id="grad1_1" x1="33.3%" y1="0%" x2="100%" y2="100%"><stop offset="20%" stop-color="#af956d" stop-opacity="1"></stop><stop offset="80%" stop-color="#b59e7c" stop-opacity="1"></stop></linearGradient></defs><defs><linearGradient id="grad1_2" x1="33.3%" y1="0%" x2="100%" y2="100%"><stop offset="20%" stop-color="#baa78c" stop-opacity="1"></stop><stop offset="80%" stop-color="#b59e7c" stop-opacity="1"></stop></linearGradient></defs><defs><linearGradient id="grad1_3" x1="33.3%" y1="0%" x2="100%" y2="100%"><stop offset="20%" stop-color="#baa78c" stop-opacity="1"></stop><stop offset="80%" stop-color="#bfb09c" stop-opacity="1"></stop></linearGradient></defs><defs><linearGradient id="grad1_4" x1="33.3%" y1="0%" x2="100%" y2="100%"><stop offset="20%" stop-color="#c4b9ac" stop-opacity="1"></stop><stop offset="80%" stop-color="#bfb09c" stop-opacity="1"></stop></linearGradient></defs><defs><linearGradient id="grad1_5" x1="33.3%" y1="0%" x2="100%" y2="100%"><stop offset="20%" stop-color="#c4b9ac" stop-opacity="1"></stop><stop offset="80%" stop-color="#c8c3bc" stop-opacity="1"></stop></linearGradient></defs><defs><linearGradient id="grad1_6" x1="33.3%" y1="0%" x2="100%" y2="100%"><stop offset="20%" stop-color="#cccccc" stop-opacity="1"></stop><stop offset="80%" stop-color="#c8c3bc" stop-opacity="1"></stop></linearGradient></defs><defs><linearGradient id="grad2_0" x1="0%" y1="0%" x2="66.7%" y2="100%"><stop offset="20%" stop-color="#af956d" stop-opacity="1"></stop><stop offset="80%" stop-color="#af956d" stop-opacity="1"></stop></linearGradient></defs><defs><linearGradient id="grad2_1" x1="0%" y1="0%" x2="66.7%" y2="100%"><stop offset="20%" stop-color="#b59e7c" stop-opacity="1"></stop><stop offset="80%" stop-color="#af956d" stop-opacity="1"></stop></linearGradient></defs><defs><linearGradient id="grad2_2" x1="0%" y1="0%" x2="66.7%" y2="100%"><stop offset="20%" stop-color="#b59e7c" stop-opacity="1"></stop><stop offset="80%" stop-color="#baa78c" stop-opacity="1"></stop></linearGradient></defs><defs><linearGradient id="grad2_3" x1="0%" y1="0%" x2="66.7%" y2="100%"><stop offset="20%" stop-color="#bfb09c" stop-opacity="1"></stop><stop offset="80%" stop-color="#baa78c" stop-opacity="1"></stop></linearGradient></defs><defs><linearGradient id="grad2_4" x1="0%" y1="0%" x2="66.7%" y2="100%"><stop offset="20%" stop-color="#bfb09c" stop-opacity="1"></stop><stop offset="80%" stop-color="#c4b9ac" stop-opacity="1"></stop></linearGradient></defs><defs><linearGradient id="grad2_5" x1="0%" y1="0%" x2="66.7%" y2="100%"><stop offset="20%" stop-color="#c8c3bc" stop-opacity="1"></stop><stop offset="80%" stop-color="#c4b9ac" stop-opacity="1"></stop></linearGradient></defs><defs><linearGradient id="grad2_6" x1="0%" y1="0%" x2="66.7%" y2="100%"><stop offset="20%" stop-color="#c8c3bc" stop-opacity="1"></stop><stop offset="80%" stop-color="#cccccc" stop-opacity="1"></stop></linearGradient></defs><g transform="translate(900, 0)"><path d="M0 540.8C-41.8 520.3 -83.7 499.7 -132 492.6C-180.3 485.6 -235.2 492 -270.4 468.4C-305.6 444.7 -321.3 391 -354.3 354.3C-387.3 317.5 -437.6 297.6 -449.5 259.5C-461.3 221.4 -434.6 165.1 -443.4 118.8C-452.2 72.5 -496.5 36.3 -540.8 0L0 0Z" fill="#cac7c4"></path><path d="M0 463.6C-35.9 445.9 -71.7 428.3 -113.1 422.2C-154.6 416.2 -201.6 421.7 -231.8 401.5C-262 381.2 -275.4 335.2 -303.7 303.7C-331.9 272.1 -375.1 255.1 -385.3 222.4C-395.4 189.8 -372.5 141.5 -380 101.8C-387.6 62.2 -425.6 31.1 -463.6 0L0 0Z" fill="#c6beb4"></path><path d="M0 386.3C-29.9 371.6 -59.8 356.9 -94.3 351.9C-128.8 346.8 -168 351.4 -193.2 334.6C-218.3 317.7 -229.5 279.3 -253 253C-276.6 226.8 -312.6 212.6 -321 185.4C-329.5 158.1 -310.4 117.9 -316.7 84.9C-323 51.8 -354.6 25.9 -386.3 0L0 0Z" fill="#c1b5a4"></path><path d="M0 309C-23.9 297.3 -47.8 285.5 -75.4 281.5C-103 277.5 -134.4 281.1 -154.5 267.6C-174.7 254.1 -183.6 223.5 -202.4 202.4C-221.3 181.4 -250.1 170.1 -256.8 148.3C-263.6 126.5 -248.3 94.3 -253.3 67.9C-258.4 41.4 -283.7 20.7 -309 0L0 0Z" fill="#bcab94"></path><path d="M0 231.8C-17.9 223 -35.9 214.2 -56.6 211.1C-77.3 208.1 -100.8 210.9 -115.9 200.7C-131 190.6 -137.7 167.6 -151.8 151.8C-166 136.1 -187.6 127.5 -192.6 111.2C-197.7 94.9 -186.2 70.8 -190 50.9C-193.8 31.1 -212.8 15.5 -231.8 0L0 0Z" fill="#b7a284"></path><path d="M0 154.5C-12 148.6 -23.9 142.8 -37.7 140.7C-51.5 138.7 -67.2 140.6 -77.3 133.8C-87.3 127.1 -91.8 111.7 -101.2 101.2C-110.6 90.7 -125 85 -128.4 74.1C-131.8 63.3 -124.2 47.2 -126.7 33.9C-129.2 20.7 -141.9 10.4 -154.5 0L0 0Z" fill="#b29975"></path><path d="M0 77.3C-6 74.3 -12 71.4 -18.9 70.4C-25.8 69.4 -33.6 70.3 -38.6 66.9C-43.7 63.5 -45.9 55.9 -50.6 50.6C-55.3 45.4 -62.5 42.5 -64.2 37.1C-65.9 31.6 -62.1 23.6 -63.3 17C-64.6 10.4 -70.9 5.2 -77.3 0L0 0Z" fill="#af956d"></path></g><g transform="translate(0, 600)"><path d="M0 -540.8C53.5 -549 107 -557.2 140 -522.4C173 -487.7 185.4 -410 216 -374.1C246.6 -338.2 295.2 -344.1 323.1 -323.1C351.1 -302.2 358.2 -254.3 377.6 -218C397 -181.7 428.6 -157.1 457.8 -122.7C487.1 -88.3 514 -44.1 540.8 0L0 0Z" fill="#cac7c4"></path><path d="M0 -463.6C45.9 -470.6 91.7 -477.6 120 -447.8C148.3 -418 158.9 -351.4 185.1 -320.7C211.3 -289.9 253.1 -295 277 -277C300.9 -259 307 -217.9 323.6 -186.9C340.3 -155.8 367.4 -134.6 392.4 -105.2C417.5 -75.7 440.5 -37.8 463.6 0L0 0Z" fill="#c6beb4"></path><path d="M0 -386.3C38.2 -392.1 76.4 -398 100 -373.1C123.5 -348.3 132.5 -292.9 154.3 -267.2C176.1 -241.6 210.9 -245.8 230.8 -230.8C250.8 -215.8 255.9 -181.6 269.7 -155.7C283.6 -129.8 306.1 -112.2 327 -87.6C347.9 -63.1 367.1 -31.5 386.3 0L0 0Z" fill="#c1b5a4"></path><path d="M0 -309C30.6 -313.7 61.1 -318.4 80 -298.5C98.8 -278.7 106 -234.3 123.4 -213.8C140.9 -193.3 168.7 -196.7 184.7 -184.7C200.6 -172.7 204.7 -145.3 215.8 -124.6C226.8 -103.8 244.9 -89.8 261.6 -70.1C278.3 -50.4 293.7 -25.2 309 0L0 0Z" fill="#bcab94"></path><path d="M0 -231.8C22.9 -235.3 45.9 -238.8 60 -223.9C74.1 -209 79.5 -175.7 92.6 -160.3C105.7 -145 126.5 -147.5 138.5 -138.5C150.5 -129.5 153.5 -109 161.8 -93.4C170.1 -77.9 183.7 -67.3 196.2 -52.6C208.8 -37.8 220.3 -18.9 231.8 0L0 0Z" fill="#b7a284"></path><path d="M0 -154.5C15.3 -156.9 30.6 -159.2 40 -149.3C49.4 -139.3 53 -117.1 61.7 -106.9C70.4 -96.6 84.4 -98.3 92.3 -92.3C100.3 -86.3 102.3 -72.6 107.9 -62.3C113.4 -51.9 122.5 -44.9 130.8 -35.1C139.2 -25.2 146.8 -12.6 154.5 0L0 0Z" fill="#b29975"></path><path d="M0 -77.3C7.6 -78.4 15.3 -79.6 20 -74.6C24.7 -69.7 26.5 -58.6 30.9 -53.4C35.2 -48.3 42.2 -49.2 46.2 -46.2C50.2 -43.2 51.2 -36.3 53.9 -31.1C56.7 -26 61.2 -22.4 65.4 -17.5C69.6 -12.6 73.4 -6.3 77.3 0L0 0Z" fill="#af956d"></path></g></svg>